HIERARCHY
ROOT Hips
{
	OFFSET 0.000000 0.000000 0.000000
	CHANNELS 6 Xposition Yposition Zposition Xrotation Yrotation Zrotation
	JOINT LeftUpLeg_virtual
	{
		OFFSET 0.000000 0.000000 0.000000
		CHANNELS 3 Xrotation Yrotation Zrotation
		JOINT LeftUpLeg
		{
			OFFSET 13.026900 -6.336304 -1.092800
			CHANNELS 3 Xrotation Yrotation Zrotation
			JOINT LeftLeg
			{
				OFFSET 0.524474 -46.096886 9.782700
				CHANNELS 3 Xrotation Yrotation Zrotation
				JOINT LeftFoot
				{
					OFFSET -0.524474 -53.427422 -12.948200
					CHANNELS 3 Xrotation Yrotation Zrotation
					JOINT LeftToeBase
					{
						OFFSET 0.192200 -14.009700 16.364100
						CHANNELS 3 Xrotation Yrotation Zrotation
						JOINT LeftToe_End
						{
							OFFSET -1.784700 -0.561700 9.474800
							CHANNELS 3 Xrotation Yrotation Zrotation
							End Site
							{
								OFFSET 0 0 0
							}
						}
					}
				}
			}
		}
	}
	JOINT RightUpLeg_virtual
	{
		OFFSET 0.000000 0.000000 0.000000
		CHANNELS 3 Xrotation Yrotation Zrotation
		JOINT RightUpLeg
		{
			OFFSET -12.883000 -6.336304 -1.092800
			CHANNELS 3 Xrotation Yrotation Zrotation
			JOINT RightLeg
			{
				OFFSET -0.524587 -46.096825 9.782800
				CHANNELS 3 Xrotation Yrotation Zrotation
				JOINT RightFoot
				{
					OFFSET 0.524587 -53.427383 -12.948300
					CHANNELS 3 Xrotation Yrotation Zrotation
					JOINT RightToeBase
					{
						OFFSET -0.192200 -14.009700 16.364100
						CHANNELS 3 Xrotation Yrotation Zrotation
						JOINT RightToe_End
						{
							OFFSET 1.784700 -0.561700 9.474800
							CHANNELS 3 Xrotation Yrotation Zrotation
							End Site
							{
								OFFSET 0 0 0
							}
						}
					}
				}
			}
		}
	}
	JOINT Spine_virtual
	{
		OFFSET 0.000000 0.000000 0.000000
		CHANNELS 3 Xrotation Yrotation Zrotation
		JOINT Spine
		{
			OFFSET 0.072000 7.257294 -0.789700
			CHANNELS 3 Xrotation Yrotation Zrotation
			JOINT Spine1
			{
				OFFSET 0.000000 12.508769 -0.658067
				CHANNELS 3 Xrotation Yrotation Zrotation
				JOINT Spine1_split
				{
					OFFSET 0.000000 12.508769 -0.658067
					CHANNELS 3 Xrotation Yrotation Zrotation
					JOINT Spine2
					{
						OFFSET 0.000000 12.508769 -0.658067
						CHANNELS 3 Xrotation Yrotation Zrotation
						JOINT Neck_virtual
						{
							OFFSET 0.000000 0.000000 0.000000
							CHANNELS 3 Xrotation Yrotation Zrotation
							JOINT Neck
							{
								OFFSET 0.000000 14.033295 7.520400
								CHANNELS 3 Xrotation Yrotation Zrotation
								JOINT Head
								{
									OFFSET 0.000000 8.198502 5.703100
									CHANNELS 3 Xrotation Yrotation Zrotation
									JOINT HeadTop_End
									{
										OFFSET 0.000000 17.760803 13.332701
										CHANNELS 3 Xrotation Yrotation Zrotation
										End Site
										{
											OFFSET 0 0 0
										}
									}
								}
							}
						}
						JOINT LeftShoulder_virtual
						{
							OFFSET 0.000000 0.000000 0.000000
							CHANNELS 3 Xrotation Yrotation Zrotation
							JOINT LeftShoulder
							{
								OFFSET 6.292450 5.785301 -0.669000
								CHANNELS 3 Xrotation Yrotation Zrotation
								JOINT LeftShoulder_split
								{
									OFFSET 6.292450 5.785301 -0.669000
									CHANNELS 3 Xrotation Yrotation Zrotation
									JOINT LeftArm
									{
										OFFSET 13.907140 -6.093903 1.965100
										CHANNELS 3 Xrotation Yrotation Zrotation
										JOINT LeftForeArm
										{
											OFFSET 34.140198 0.000000 0.000000
											CHANNELS 3 Xrotation Yrotation Zrotation
											JOINT LeftHand
											{
												OFFSET 40.960209 0.000000 0.000000
												CHANNELS 3 Xrotation Yrotation Zrotation
												End Site
												{
													OFFSET 0 0 0
												}
											}
										}
									}
								}
							}
						}
						JOINT RightShoulder_virtual
						{
							OFFSET 0.000000 0.000000 0.000000
							CHANNELS 3 Xrotation Yrotation Zrotation
							JOINT RightShoulder
							{
								OFFSET -6.292450 5.785301 -0.669000
								CHANNELS 3 Xrotation Yrotation Zrotation
								JOINT RightShoulder_split
								{
									OFFSET -6.292450 5.785301 -0.669000
									CHANNELS 3 Xrotation Yrotation Zrotation
									JOINT RightArm
									{
										OFFSET -13.907140 -6.093903 1.965100
										CHANNELS 3 Xrotation Yrotation Zrotation
										JOINT RightForeArm
										{
											OFFSET -34.140198 0.000000 0.000000
											CHANNELS 3 Xrotation Yrotation Zrotation
											JOINT RightHand
											{
												OFFSET -40.960209 0.000000 0.000000
												CHANNELS 3 Xrotation Yrotation Zrotation
												End Site
												{
													OFFSET 0 0 0
												}
											}
										}
									}
								}
							}
						}
					}
				}
			}
		}
	}
}
MOTION
Frames: 9
Frame Time: 0.03333333
-3.071404 113.127380 1.217121 0.000000 0.000000 0.000000 5.317702 -17.508148 9.485055 -28.330009 -5.654724 -10.329233 14.087412 -3.704687 -6.069103 13.520117 -24.567478 9.721704 -1.660871 -0.488640 1.475914 0.000000 0.000000 0.000000 5.020744 -14.307181 9.558209 2.989414 -12.117904 -10.267883 30.669656 5.527079 -2.931018 2.784686 -0.040482 7.787988 -35.612589 0.575681 -1.792003 0.000000 0.000000 0.000000 3.080448 -15.055122 8.053113 1.862920 5.509552 0.423901 5.884981 9.455585 2.212155 0.808751 -1.706081 0.793225 0.000000 0.000000 0.000000 4.947993 9.287325 2.233793 -2.157951 -0.402181 -1.948157 -7.228047 -1.149933 -11.979909 0.000000 0.000000 0.000000 4.755255 9.590999 1.949380 0.429497 0.191561 -13.317798 0.758481 2.108978 -1.974814 -19.023098 -24.447906 -69.899193 0.283585 -65.370429 -1.460419 0.000000 0.000000 0.000000 5.101060 9.608801 2.238627 1.028795 11.172011 18.217323 -1.445927 2.891476 -1.577483 -44.900950 56.540794 71.565875 -2.397598 39.220630 0.944305 0.000000 0.000000 0.000000 
-2.794957 113.110306 1.136181 0.000000 0.000000 0.000000 5.268006 -17.494917 9.315639 -28.481283 -6.246016 -10.172424 14.245516 -3.924432 -6.244199 13.674281 -24.729436 9.593972 -1.736162 -0.433794 1.430387 0.000000 0.000000 0.000000 5.045567 -14.207528 9.407094 3.049617 -12.188776 -10.343936 30.704822 5.789683 -2.961230 2.341960 0.034908 8.129501 -34.661677 0.650473 -1.950818 0.000000 0.000000 0.000000 3.250251 -15.382725 7.808333 1.868650 5.561919 0.519686 5.858436 9.430931 2.197115 0.879412 -1.722275 0.765189 0.000000 0.000000 0.000000 4.993568 9.264850 2.218641 -2.127512 -0.341377 -1.960411 -7.270607 -1.260602 -11.983914 0.000000 0.000000 0.000000 4.741820 9.557530 1.933326 0.437971 0.156089 -13.308115 0.850647 2.151880 -1.934163 -19.359150 -24.652262 -69.977631 0.392787 -65.465341 -1.376405 0.000000 0.000000 0.000000 5.074730 9.579450 2.243625 1.029699 11.019403 18.188751 -1.568115 2.869724 -1.557371 -45.061237 56.542843 71.637981 -2.363049 39.414474 0.928150 0.000000 0.000000 0.000000 
-2.508420 112.897888 1.091648 0.000000 0.000000 0.000000 5.090221 -17.768069 9.027978 -28.850664 -6.858960 -9.916933 14.890002 -4.154530 -6.453359 13.701791 -24.882516 9.327285 -1.801015 -0.288039 1.351318 0.000000 0.000000 0.000000 5.144074 -14.392165 9.065470 3.449325 -12.095992 -10.069151 30.007576 5.972904 -3.031894 0.896104 0.201580 7.680558 -32.736564 0.785452 -2.142607 0.000000 0.000000 0.000000 3.360452 -15.794956 7.470374 1.947431 5.652146 0.685385 5.817947 9.396162 2.178824 0.915208 -1.759373 0.685907 0.000000 0.000000 0.000000 5.019777 9.225566 2.192693 -2.343355 -0.260829 -1.954367 -7.540626 -1.435058 -11.870576 0.000000 0.000000 0.000000 4.724332 9.505750 1.908521 0.442295 0.108712 -13.315400 0.861711 2.218161 -1.887318 -19.828377 -25.129043 -70.096927 0.513895 -65.522578 -1.300976 0.000000 0.000000 0.000000 5.044601 9.537475 2.235647 1.018307 10.865677 18.186854 -1.664558 2.817856 -1.518305 -45.190338 56.415829 71.627825 -2.359133 40.048643 0.943618 0.000000 0.000000 0.000000 
-2.249897 112.527847 0.928989 0.000000 0.000000 0.000000 4.829223 -18.329636 8.677861 -29.231321 -7.404351 -9.594446 15.770114 -4.388458 -6.629472 13.467085 -25.047779 8.853521 -1.848830 -0.052675 1.229053 0.000000 0.000000 0.000000 5.260498 -14.934793 8.672119 3.935888 -11.989590 -9.642660 29.091951 6.063996 -3.044681 -0.689753 0.436501 6.683729 -30.633316 0.948011 -2.328449 0.000000 0.000000 0.000000 3.449948 -16.223286 7.140139 2.054250 5.767992 0.892290 5.767035 9.354041 2.155332 0.928821 -1.816905 0.583814 0.000000 0.000000 0.000000 5.021759 9.175546 2.160744 -2.767100 -0.190059 -1.941901 -8.001394 -1.650299 -11.663487 0.000000 0.000000 0.000000 4.692179 9.444201 1.878310 0.442275 0.076964 -13.347302 0.791389 2.322511 -1.822327 -20.292157 -25.778160 -70.206668 0.602478 -65.571660 -1.265729 0.000000 0.000000 0.000000 5.005877 9.483814 2.216303 0.994173 10.709148 18.186810 -1.705869 2.814166 -1.490048 -45.234967 56.178630 71.496262 -2.384996 41.010631 0.993771 0.000000 0.000000 0.000000 
-2.052821 112.046089 0.769161 0.000000 0.000000 0.000000 4.551686 -19.074097 8.338492 -29.497975 -7.890428 -9.253244 16.668663 -4.610059 -6.736076 12.928711 -25.268971 8.174360 -1.924917 0.256165 1.079935 0.000000 0.000000 0.000000 5.299280 -15.742876 8.313826 4.261147 -12.022071 -9.330334 28.043328 6.298154 -2.967055 -1.665250 0.926547 6.078570 -29.431674 1.102586 -2.539939 0.000000 0.000000 0.000000 3.494395 -16.576154 6.843294 2.190449 5.913696 1.127204 5.709437 9.304567 2.128881 0.910478 -1.846149 0.544463 0.000000 0.000000 0.000000 4.983673 9.118413 2.132536 -3.323324 -0.164103 -1.927893 -8.588341 -1.881099 -11.409660 0.000000 0.000000 0.000000 4.630877 9.381375 1.851920 0.434696 0.086503 -13.412231 0.676198 2.426978 -1.801186 -20.660465 -26.531129 -70.275994 0.625436 -65.656512 -1.284404 0.000000 0.000000 0.000000 4.949557 9.418801 2.185637 0.954575 10.549570 18.137864 -1.664623 2.854364 -1.491808 -45.163427 55.818977 71.244494 -2.442729 42.206509 1.069837 0.000000 0.000000 0.000000 
-1.921181 111.559624 0.826084 0.000000 0.000000 0.000000 4.293884 -19.776623 8.026043 -29.647235 -8.323184 -8.860282 17.537076 -4.861670 -6.745328 12.222531 -25.608220 7.304844 -2.047603 0.625603 0.929051 0.000000 0.000000 0.000000 5.246490 -16.691258 8.000833 4.404957 -12.179198 -9.197937 26.950166 6.785244 -2.834544 -1.982663 1.754551 6.230125 -28.991025 1.222844 -2.814001 0.000000 0.000000 0.000000 3.506886 -16.871732 6.559905 2.356676 6.082945 1.401842 5.653229 9.252922 2.097860 0.848083 -1.811217 0.570691 0.000000 0.000000 0.000000 4.900648 9.049845 2.113407 -3.947995 -0.191980 -1.915370 -9.243150 -2.108702 -11.153502 0.000000 0.000000 0.000000 4.534493 9.317603 1.829464 0.418959 0.152537 -13.510325 0.530280 2.465093 -1.785700 -20.909480 -27.311785 -70.311306 0.579020 -65.787412 -1.349289 0.000000 0.000000 0.000000 4.878435 9.344322 2.146075 0.894065 10.387981 18.007230 -1.597346 2.888656 -1.495014 -44.987225 55.362139 70.891975 -2.533047 43.527457 1.158460 0.000000 0.000000 0.000000 
-1.835407 111.144821 0.955330 0.000000 0.000000 0.000000 4.143173 -20.410688 7.688050 -29.683435 -8.621069 -8.378311 18.416782 -5.149821 -6.631403 11.455652 -26.051779 6.362098 -2.226418 1.054044 0.786202 0.000000 0.000000 0.000000 5.087719 -17.715900 7.722071 4.662765 -12.408718 -9.131598 25.764360 7.258190 -2.676377 -2.292547 2.668425 6.645947 -28.235843 1.274260 -3.106657 0.000000 0.000000 0.000000 3.520205 -17.139788 6.260898 2.542595 6.272254 1.713591 5.581203 9.198731 2.063351 0.785565 -1.695512 0.545252 0.000000 0.000000 0.000000 4.778791 8.963678 2.105204 -4.569781 -0.272595 -1.898473 -9.919045 -2.342234 -10.936244 0.000000 0.000000 0.000000 4.407763 9.251040 1.809974 0.395070 0.262930 -13.606438 0.385747 2.451706 -1.764154 -21.136437 -28.073647 -70.347622 0.497568 -65.927035 -1.419222 0.000000 0.000000 0.000000 4.796887 9.263077 2.104373 0.814898 10.211713 17.807220 -1.536265 2.899373 -1.502814 -44.786472 54.817531 70.548662 -2.637889 44.858920 1.235692 0.000000 0.000000 0.000000 
-1.844242 110.816833 1.118893 0.000000 0.000000 0.000000 4.088812 -20.934497 7.283150 -29.718204 -8.685911 -7.771863 19.281481 -5.354964 -6.411592 10.649434 -26.524869 5.530986 -2.493994 1.542847 0.662257 0.000000 0.000000 0.000000 4.851430 -18.498949 7.356343 5.110863 -12.668398 -8.996596 24.352363 7.467209 -2.538736 -3.201227 3.522669 6.829928 -26.404019 1.261597 -3.369667 0.000000 0.000000 0.000000 3.542631 -17.290424 5.894405 2.769005 6.477301 2.075636 5.496751 9.140310 2.022276 0.750161 -1.509781 0.558656 0.000000 0.000000 0.000000 4.630020 8.860966 2.106709 -5.111220 -0.389745 -1.851924 -10.567881 -2.542829 -10.781071 0.000000 0.000000 0.000000 4.271271 9.175516 1.788780 0.363125 0.387230 -13.675108 0.218750 2.388637 -1.737090 -21.408203 -28.796474 -70.423519 0.432741 -66.017480 -1.448598 0.000000 0.000000 0.000000 4.720682 9.185285 2.058804 0.719231 10.031399 17.567909 -1.437425 2.924827 -1.515185 -44.595483 54.233560 70.284320 -2.741717 46.110901 1.294200 0.000000 0.000000 0.000000 
-1.882064 110.581650 1.282913 0.000000 0.000000 0.000000 4.187285 -21.488685 6.806635 -29.887713 -8.483220 -7.076100 20.092499 -5.381028 -6.142947 9.904619 -26.926470 4.971835 -2.764735 2.085688 0.565340 0.000000 0.000000 0.000000 4.704826 -18.971919 6.835304 5.753209 -12.825077 -8.711392 23.044350 7.368943 -2.464973 -4.397300 4.203426 6.748139 -24.522543 1.282091 -3.578682 0.000000 0.000000 0.000000 3.624390 -17.371773 5.477278 2.985458 6.686100 2.475503 5.412396 9.069939 1.970017 0.730059 -1.399411 0.581095 0.000000 0.000000 0.000000 4.477899 8.752172 2.109439 -5.521785 -0.521654 -1.768583 -11.207518 -2.661106 -10.663052 0.000000 0.000000 0.000000 4.141882 9.093324 1.760624 0.322422 0.468419 -13.690916 0.052043 2.297590 -1.711522 -21.720891 -29.436520 -70.556517 0.421403 -66.033866 -1.419687 0.000000 0.000000 0.000000 4.660526 9.112361 2.012684 0.610819 9.871460 17.335754 -1.308979 2.965884 -1.460430 -44.454723 53.715886 70.112814 -2.833608 47.216200 1.337062 0.000000 0.000000 0.000000 
